<svg width="1577" height="379" viewBox="0 0 1577 379" fill="none" xmlns="http://www.w3.org/2000/svg">
<g filter="url(#filter0_d_906_34084)">
<path d="M556.718 130.69L556.718 259.168H530.37L479.242 185.017H478.426L478.426 259.168H447.373L447.373 130.69H474.098L524.661 204.716H525.728L525.728 130.69L556.718 130.69ZM629.58 217.576L629.58 162.809L660.194 162.809L660.194 259.168H630.96L630.96 241.227H629.957C627.824 247.124 624.185 251.808 619.041 255.279C613.939 258.708 607.77 260.423 600.534 260.423C593.968 260.423 588.197 258.918 583.22 255.906C578.243 252.895 574.374 248.692 571.614 243.297C568.854 237.86 567.453 231.503 567.411 224.226L567.411 162.809L598.088 162.809L598.088 218.203C598.13 223.431 599.51 227.551 602.228 230.562C604.947 233.573 608.648 235.079 613.332 235.079C616.385 235.079 619.125 234.41 621.55 233.071C624.018 231.691 625.962 229.705 627.384 227.112C628.848 224.477 629.58 221.298 629.58 217.576ZM670.887 259.168L670.887 162.809H700.058L700.058 180.5H701.125C703.132 174.645 706.52 170.024 711.288 166.636C716.055 163.249 721.743 161.555 728.351 161.555C735.043 161.555 740.773 163.269 745.54 166.699C750.308 170.128 753.34 174.729 754.637 180.5H755.64C757.439 174.771 760.952 170.191 766.18 166.762C771.408 163.29 777.576 161.555 784.686 161.555C793.803 161.555 801.206 164.482 806.894 170.337C812.582 176.151 815.426 184.139 815.426 194.302L815.426 259.168H784.749L784.749 201.328C784.749 196.518 783.515 192.859 781.048 190.35C778.58 187.798 775.381 186.523 771.449 186.523C767.225 186.523 763.9 187.903 761.475 190.663C759.091 193.382 757.899 197.041 757.899 201.642L757.899 259.168H728.414L728.414 201.014C728.414 196.539 727.201 193.005 724.775 190.412C722.35 187.819 719.15 186.523 715.177 186.523C712.501 186.523 710.138 187.171 708.088 188.468C706.039 189.722 704.429 191.521 703.258 193.863C702.129 196.205 701.564 198.965 701.564 202.143L701.564 259.168H670.887ZM854.722 259.168L854.722 130.69L942.424 130.69L942.424 155.909L885.775 155.909L885.775 182.257L936.841 182.257L936.841 207.539H885.775L885.775 259.168L854.722 259.168ZM949.227 259.168L949.227 162.809H979.904L979.904 259.168H949.227ZM964.597 151.58C960.289 151.58 956.588 150.158 953.493 147.314C950.398 144.428 948.851 140.957 948.851 136.9C948.851 132.885 950.398 129.456 953.493 126.612C956.588 123.726 960.289 122.283 964.597 122.283C968.947 122.283 972.648 123.726 975.701 126.612C978.796 129.456 980.343 132.885 980.343 136.9C980.343 140.957 978.796 144.428 975.701 147.314C972.648 150.158 968.947 151.58 964.597 151.58ZM1021.27 204.214L1021.27 259.168H990.597L990.597 162.809L1019.77 162.809L1019.77 180.5H1020.83C1022.97 174.603 1026.61 169.982 1031.75 166.636C1036.89 163.249 1043.02 161.555 1050.13 161.555C1056.91 161.555 1062.78 163.081 1067.76 166.134C1072.78 169.146 1076.67 173.37 1079.43 178.807C1082.23 184.202 1083.61 190.517 1083.57 197.752L1083.57 259.168H1052.89L1052.89 203.775C1052.93 198.421 1051.57 194.239 1048.81 191.228C1046.1 188.217 1042.31 186.711 1037.46 186.711C1034.24 186.711 1031.39 187.422 1028.93 188.844C1026.5 190.224 1024.62 192.211 1023.28 194.804C1021.98 197.397 1021.32 200.533 1021.27 204.214ZM1120.89 260.8C1114.74 260.8 1109.29 259.775 1104.52 257.726C1099.79 255.634 1096.05 252.498 1093.29 248.316C1090.57 244.091 1089.21 238.801 1089.21 232.444C1089.21 227.091 1090.15 222.574 1092.03 218.893C1093.92 215.213 1096.51 212.223 1099.81 209.922C1103.12 207.622 1106.92 205.887 1111.23 204.716C1115.54 203.503 1120.14 202.687 1125.03 202.269C1130.51 201.767 1134.92 201.244 1138.27 200.701C1141.61 200.115 1144.04 199.3 1145.55 198.254C1147.09 197.167 1147.87 195.64 1147.87 193.674L1147.87 193.361C1147.87 190.14 1146.76 187.652 1144.54 185.895C1142.33 184.139 1139.34 183.261 1135.57 183.261C1131.51 183.261 1128.25 184.139 1125.79 185.895C1123.32 187.652 1121.75 190.078 1121.08 193.173L1092.79 192.169C1093.62 186.314 1095.78 181.086 1099.25 176.485C1102.76 171.843 1107.57 168.205 1113.68 165.57C1119.83 162.893 1127.21 161.555 1135.82 161.555C1141.97 161.555 1147.64 162.287 1152.82 163.75C1158.01 165.172 1162.53 167.264 1166.37 170.024C1170.22 172.742 1173.19 176.088 1175.28 180.061C1177.41 184.034 1178.48 188.572 1178.48 193.674L1178.48 259.168H1149.62L1149.62 245.743H1148.87C1147.16 249.006 1144.96 251.766 1142.28 254.024C1139.65 256.283 1136.53 257.977 1132.94 259.106C1129.38 260.235 1125.37 260.8 1120.89 260.8ZM1130.36 240.725C1133.67 240.725 1136.64 240.056 1139.27 238.717C1141.95 237.379 1144.08 235.539 1145.67 233.197C1147.26 230.813 1148.06 228.053 1148.06 224.916L1148.06 215.757C1147.18 216.217 1146.11 216.635 1144.86 217.011C1143.64 217.388 1142.31 217.743 1140.84 218.078C1139.38 218.412 1137.87 218.705 1136.32 218.956C1134.78 219.207 1133.29 219.437 1131.87 219.646C1128.98 220.106 1126.52 220.817 1124.47 221.779C1122.46 222.741 1120.91 223.996 1119.83 225.543C1118.78 227.049 1118.26 228.847 1118.26 230.938C1118.26 234.117 1119.39 236.542 1121.64 238.215C1123.94 239.888 1126.85 240.725 1130.36 240.725ZM1219.08 204.214L1219.08 259.168H1188.41L1188.41 162.809H1217.58L1217.58 180.5H1218.64C1220.78 174.603 1224.42 169.982 1229.56 166.636C1234.7 163.249 1240.83 161.555 1247.94 161.555C1254.72 161.555 1260.59 163.081 1265.57 166.134C1270.59 169.146 1274.48 173.37 1277.24 178.807C1280.04 184.202 1281.42 190.517 1281.38 197.752L1281.38 259.168H1250.7L1250.7 203.775C1250.74 198.421 1249.38 194.239 1246.62 191.228C1243.9 188.217 1240.12 186.711 1235.27 186.711C1232.05 186.711 1229.2 187.422 1226.74 188.844C1224.31 190.224 1222.43 192.211 1221.09 194.804C1219.79 197.397 1219.12 200.533 1219.08 204.214ZM1336.52 260.988C1326.35 260.988 1317.63 258.897 1310.36 254.714C1303.12 250.532 1297.56 244.719 1293.67 237.274C1289.78 229.788 1287.84 221.131 1287.84 211.303C1287.84 201.433 1289.78 192.775 1293.67 185.331C1297.6 177.845 1303.18 172.01 1310.42 167.828C1317.7 163.646 1326.38 161.555 1336.45 161.555C1345.36 161.555 1353.12 163.165 1359.73 166.385C1366.38 169.606 1371.56 174.164 1375.29 180.061C1379.05 185.916 1381.04 192.796 1381.25 200.701L1352.58 200.701C1351.99 195.766 1350.32 191.897 1347.56 189.095C1344.84 186.293 1341.28 184.892 1336.89 184.892C1333.34 184.892 1330.22 185.895 1327.55 187.903C1324.87 189.869 1322.78 192.796 1321.27 196.686C1319.81 200.533 1319.08 205.301 1319.08 210.989C1319.08 216.677 1319.81 221.486 1321.27 225.418C1322.78 229.307 1324.87 232.256 1327.55 234.263C1330.22 236.229 1333.34 237.212 1336.89 237.212C1339.74 237.212 1342.25 236.605 1344.42 235.392C1346.64 234.18 1348.46 232.402 1349.88 230.06C1351.3 227.676 1352.2 224.79 1352.58 221.403H1381.25C1380.95 229.349 1378.97 236.292 1375.29 242.23C1371.65 248.169 1366.52 252.791 1359.92 256.095C1353.35 259.357 1345.55 260.988 1336.52 260.988ZM1433.16 260.988C1423.08 260.988 1414.38 259.001 1407.06 255.028C1399.78 251.013 1394.18 245.304 1390.25 237.902C1386.36 230.457 1384.41 221.612 1384.41 211.365C1384.41 201.412 1386.38 192.713 1390.31 185.268C1394.24 177.782 1399.78 171.969 1406.93 167.828C1414.08 163.646 1422.51 161.555 1432.21 161.555C1439.07 161.555 1445.35 162.621 1451.03 164.754C1456.72 166.887 1461.64 170.045 1465.78 174.227C1469.92 178.409 1473.14 183.574 1475.44 189.722C1477.74 195.828 1478.89 202.834 1478.89 210.738L1478.89 218.392L1395.14 218.392L1395.14 200.575H1450.34C1450.3 197.313 1449.53 194.406 1448.02 191.855C1446.52 189.304 1444.45 187.317 1441.81 185.895C1439.22 184.432 1436.23 183.7 1432.84 183.7C1429.41 183.7 1426.34 184.473 1423.62 186.021C1420.9 187.527 1418.75 189.597 1417.16 192.232C1415.57 194.825 1414.73 197.773 1414.65 201.077L1414.65 219.207C1414.65 223.138 1415.42 226.589 1416.97 229.558C1418.52 232.486 1420.71 234.765 1423.56 236.396C1426.4 238.027 1429.79 238.843 1433.72 238.843C1436.44 238.843 1438.91 238.466 1441.12 237.714C1443.34 236.961 1445.24 235.852 1446.83 234.389C1448.42 232.925 1449.61 231.126 1450.41 228.994L1478.57 229.809C1477.4 236.124 1474.83 241.624 1470.86 246.308C1466.93 250.95 1461.76 254.568 1455.36 257.161C1448.96 259.712 1441.56 260.988 1433.16 260.988Z" fill="black"/>
</g>
<g filter="url(#filter1_d_906_34084)">
<path d="M372.326 217.199C369.515 220.271 366.442 223.122 363.49 226.073C348.156 241.403 332.821 256.733 317.487 272.063C303.119 286.426 288.762 300.778 274.395 315.142C272.984 316.552 271.564 317.972 270.153 319.382C267.221 322.303 263.876 324.589 260.199 325.778C252.703 328.195 244.552 327.057 238.084 322.122C236.633 321.014 235.152 319.432 233.751 318.042C220.029 304.324 206.296 290.595 192.574 276.877C178.569 262.877 164.564 248.876 150.57 234.886C149.774 234.09 148.978 233.294 148.192 232.499C143.316 227.624 135.739 235.188 140.616 240.073C151.557 251.012 162.499 261.95 173.431 272.878C180.493 279.939 187.556 287 194.619 294.06C188.856 299.822 183.093 305.583 177.34 311.334C174.539 314.134 171.748 316.944 168.947 319.724C164.02 324.619 157.814 327.117 151.164 326.976C147.648 326.906 143.638 325.899 140.374 324.106C138.097 322.857 136.555 321.648 134.742 319.875C133.724 318.868 132.717 317.851 131.699 316.834C126.319 311.455 120.939 306.076 115.558 300.698C98.7832 283.928 82.0079 267.167 65.2427 250.397C54.5629 239.721 43.8428 229.084 33.2034 218.367C23.7327 208.829 23.5412 193.912 32.9817 184.303C35.833 181.392 38.7448 178.542 41.6263 175.661C57.0313 160.261 72.4364 144.86 87.8415 129.46C101.987 115.318 116.133 101.177 130.278 87.0354C131.628 85.6858 132.989 84.326 134.339 82.9763C137.553 79.7733 141.14 77.497 145.361 76.3286C152.656 74.3142 161.018 75.7948 167.003 80.9216C168.333 82.0597 169.542 83.3389 170.781 84.5778C184.564 98.3566 198.337 112.125 212.12 125.904C226.013 139.794 239.917 153.694 253.811 167.583C254.607 168.379 255.403 169.175 256.189 169.97C261.065 174.845 268.642 167.281 263.765 162.396C252.924 151.558 242.093 140.731 231.253 129.893C224.089 122.731 216.926 115.57 209.752 108.399C214.89 103.262 220.029 98.125 225.167 92.9881C228.371 89.7852 231.565 86.5923 234.769 83.3893C238.93 79.2294 243.333 76.6006 249.197 75.6739C250.375 75.4826 252.894 75.4121 254.738 75.543C256.189 75.6437 258.506 76.1272 260.471 76.7819C263.675 77.8496 266.939 79.9345 269.528 82.4727C270.324 83.2483 271.1 84.044 271.886 84.8296C276.984 89.9262 282.082 95.0227 287.19 100.129C303.956 116.89 320.731 133.66 337.496 150.42C348.659 161.58 359.853 172.72 370.986 183.9C380.104 193.056 381.112 207.57 372.296 217.189L372.326 217.199Z" fill="black"/>
</g>
<path d="M1489.87 107.045V98.9966H1524.53V107.045H1512.1V140H1502.33V107.045H1489.87ZM1526.55 98.9966H1538.82L1549.23 124.383H1549.71L1560.13 98.9966H1572.4V140H1562.75V114.813H1562.41L1552.56 139.74H1546.39L1536.54 114.673H1536.2V140H1526.55V98.9966Z" fill="black"/>
<defs>
<filter id="filter0_d_906_34084" x="432.21" y="122.283" width="1061.84" height="169.031" filterUnits="userSpaceOnUse" color-interpolation-filters="sRGB">
<feFlood flood-opacity="0" result="BackgroundImageFix"/>
<feColorMatrix in="SourceAlpha" type="matrix" values="0 0 0 0 0 0 0 0 0 0 0 0 0 0 0 0 0 0 127 0" result="hardAlpha"/>
<feOffset dy="15.1632"/>
<feGaussianBlur stdDeviation="7.58159"/>
<feComposite in2="hardAlpha" operator="out"/>
<feColorMatrix type="matrix" values="0 0 0 0 0 0 0 0 0 0 0 0 0 0 0 0 0 0 0.25 0"/>
<feBlend mode="normal" in2="BackgroundImageFix" result="effect1_dropShadow_906_34084"/>
<feBlend mode="normal" in="SourceGraphic" in2="effect1_dropShadow_906_34084" result="shape"/>
</filter>
<filter id="filter1_d_906_34084" x="0.414799" y="75.4614" width="403.565" height="302.71" filterUnits="userSpaceOnUse" color-interpolation-filters="sRGB">
<feFlood flood-opacity="0" result="BackgroundImageFix"/>
<feColorMatrix in="SourceAlpha" type="matrix" values="0 0 0 0 0 0 0 0 0 0 0 0 0 0 0 0 0 0 127 0" result="hardAlpha"/>
<feOffset dy="25.5852"/>
<feGaussianBlur stdDeviation="12.7926"/>
<feComposite in2="hardAlpha" operator="out"/>
<feColorMatrix type="matrix" values="0 0 0 0 0 0 0 0 0 0 0 0 0 0 0 0 0 0 0.25 0"/>
<feBlend mode="normal" in2="BackgroundImageFix" result="effect1_dropShadow_906_34084"/>
<feBlend mode="normal" in="SourceGraphic" in2="effect1_dropShadow_906_34084" result="shape"/>
</filter>
</defs>
</svg>
