<svg width="2144" height="374" viewBox="0 0 2144 374" fill="none" xmlns="http://www.w3.org/2000/svg">
<g filter="url(#filter0_d_865_34146)">
<path d="M507.981 108.549L543.854 226.037H545.186L581.059 108.549L624.451 108.549L570.328 268.959H518.712L464.589 108.549L507.981 108.549ZM672.5 271.23C659.916 271.23 649.054 268.75 639.916 263.79C630.831 258.777 623.834 251.649 618.925 242.407C614.069 233.112 611.641 222.068 611.641 209.275C611.641 196.847 614.095 185.986 619.004 176.692C623.912 167.345 630.831 160.087 639.76 154.917C648.689 149.696 659.211 147.085 671.325 147.085C679.888 147.085 687.721 148.416 694.822 151.079C701.924 153.742 708.059 157.685 713.229 162.907C718.398 168.128 722.419 174.577 725.291 182.253C728.163 189.877 729.599 198.623 729.599 208.492L729.599 218.048L625.035 218.048L625.035 195.803H693.961C693.909 191.73 692.943 188.101 691.063 184.916C689.183 181.731 686.598 179.25 683.309 177.475C680.071 175.647 676.338 174.734 672.108 174.734C667.826 174.734 663.988 175.7 660.594 177.632C657.2 179.511 654.511 182.096 652.527 185.386C650.543 188.623 649.498 192.305 649.394 196.43L649.394 219.066C649.394 223.974 650.36 228.282 652.292 231.989C654.224 235.645 656.965 238.49 660.516 240.527C664.067 242.563 668.296 243.582 673.205 243.582C676.599 243.582 679.68 243.112 682.447 242.172C685.215 241.232 687.59 239.848 689.575 238.02C691.559 236.193 693.047 233.948 694.039 231.285L729.207 232.303C727.745 240.187 724.534 247.054 719.573 252.902C714.665 258.698 708.216 263.215 700.227 266.453C692.238 269.638 682.995 271.23 672.5 271.23ZM794.292 271.23C781.603 271.23 770.716 268.62 761.63 263.398C752.597 258.176 745.652 250.918 740.796 241.623C735.939 232.277 733.511 221.468 733.511 209.197C733.511 196.874 735.939 186.065 740.796 176.77C745.704 167.423 752.675 160.139 761.708 154.917C770.794 149.696 781.629 147.085 794.213 147.085C805.336 147.085 815.022 149.095 823.272 153.116C831.575 157.137 838.049 162.828 842.697 170.191C847.396 177.501 849.877 186.091 850.138 195.96H814.343C813.612 189.798 811.523 184.968 808.077 181.47C804.683 177.971 800.244 176.222 794.762 176.222C790.323 176.222 786.433 177.475 783.091 179.981C779.749 182.436 777.138 186.091 775.259 190.947C773.431 195.751 772.517 201.704 772.517 208.805C772.517 215.907 773.431 221.912 775.259 226.82C777.138 231.676 779.749 235.357 783.091 237.864C786.433 240.318 790.323 241.545 794.762 241.545C798.312 241.545 801.445 240.788 804.161 239.274C806.928 237.759 809.2 235.54 810.975 232.616C812.75 229.64 813.873 226.037 814.343 221.807H850.138C849.772 231.728 847.292 240.396 842.697 247.811C838.154 255.226 831.757 260.996 823.507 265.121C815.309 269.194 805.571 271.23 794.292 271.23ZM926.618 148.651L926.618 176.848L850.721 176.848L850.721 148.651H926.618ZM866.621 119.828H904.922L904.922 231.128C904.922 233.478 905.288 235.384 906.019 236.846C906.802 238.255 907.925 239.274 909.387 239.9C910.849 240.475 912.598 240.762 914.635 240.762C916.097 240.762 917.637 240.631 919.256 240.37C920.927 240.057 922.18 239.796 923.015 239.587L928.812 267.236C926.984 267.758 924.399 268.411 921.057 269.194C917.768 269.977 913.825 270.473 909.23 270.682C900.249 271.1 892.547 270.056 886.124 267.549C879.754 264.991 874.871 261.022 871.477 255.644C868.136 250.265 866.517 243.503 866.621 235.357L866.621 119.828ZM935.132 268.959L935.132 148.651L973.433 148.651L973.433 268.959H935.132ZM954.322 134.631C948.944 134.631 944.323 132.856 940.459 129.305C936.594 125.702 934.662 121.368 934.662 116.303C934.662 111.29 936.594 107.008 940.459 103.458C944.323 99.8546 948.944 98.0531 954.322 98.0531C959.753 98.0531 964.374 99.8546 968.186 103.458C972.05 107.008 973.982 111.29 973.982 116.303C973.982 121.368 972.05 125.702 968.186 129.305C964.374 132.856 959.753 134.631 954.322 134.631ZM1064.4 217.029L1064.4 148.651H1102.63L1102.63 268.959H1066.13L1066.13 246.558H1064.87C1062.21 253.921 1057.67 259.769 1051.25 264.103C1044.88 268.385 1037.17 270.525 1028.14 270.525C1019.94 270.525 1012.74 268.646 1006.52 264.886C1000.31 261.126 995.478 255.879 992.032 249.143C988.586 242.354 986.836 234.418 986.784 225.332L986.784 148.651H1025.09L1025.09 217.813C1025.14 224.34 1026.86 229.483 1030.25 233.243C1033.65 237.002 1038.27 238.882 1044.12 238.882C1047.93 238.882 1051.35 238.047 1054.38 236.376C1057.46 234.652 1059.89 232.172 1061.66 228.935C1063.49 225.645 1064.4 221.677 1064.4 217.029ZM1115.98 268.959L1115.98 148.651H1152.4L1152.4 170.739H1153.73C1156.24 163.429 1160.47 157.659 1166.42 153.429C1172.37 149.2 1179.47 147.085 1187.72 147.085C1196.08 147.085 1203.23 149.226 1209.18 153.507C1215.14 157.789 1218.92 163.533 1220.54 170.739H1221.8C1224.04 163.585 1228.43 157.868 1234.95 153.586C1241.48 149.252 1249.18 147.085 1258.06 147.085C1269.44 147.085 1278.69 150.74 1285.79 158.05C1292.89 165.308 1296.44 175.282 1296.44 187.971L1296.44 268.959H1258.14L1258.14 196.743C1258.14 190.738 1256.6 186.169 1253.52 183.036C1250.44 179.851 1246.44 178.258 1241.53 178.258C1236.26 178.258 1232.11 179.981 1229.08 183.428C1226.1 186.822 1224.61 191.391 1224.61 197.135L1224.61 268.959H1187.8L1187.8 196.351C1187.8 190.764 1186.29 186.352 1183.26 183.114C1180.23 179.877 1176.24 178.258 1171.28 178.258C1167.93 178.258 1164.98 179.068 1162.42 180.686C1159.87 182.253 1157.86 184.498 1156.39 187.422C1154.98 190.346 1154.28 193.793 1154.28 197.761L1154.28 268.959H1115.98ZM1345.5 268.959L1345.5 108.549L1455 108.549L1455 140.036L1384.27 140.036L1384.27 172.932L1448.03 172.932L1448.03 204.497L1384.27 204.497L1384.27 268.959H1345.5ZM1463.5 268.959L1463.5 148.651H1501.8L1501.8 268.959H1463.5ZM1482.69 134.631C1477.31 134.631 1472.69 132.856 1468.82 129.305C1464.96 125.702 1463.03 121.368 1463.03 116.303C1463.03 111.29 1464.96 107.008 1468.82 103.458C1472.69 99.8546 1477.31 98.0531 1482.69 98.0531C1488.12 98.0531 1492.74 99.8546 1496.55 103.458C1500.41 107.008 1502.34 111.29 1502.34 116.303C1502.34 121.368 1500.41 125.702 1496.55 129.305C1492.74 132.856 1488.12 134.631 1482.69 134.631ZM1553.45 200.346L1553.45 268.959H1515.15L1515.15 148.651H1551.57L1551.57 170.739H1552.9C1555.56 163.376 1560.11 157.606 1566.53 153.429C1572.95 149.2 1580.6 147.085 1589.48 147.085C1597.94 147.085 1605.27 148.991 1611.49 152.803C1617.75 156.562 1622.61 161.836 1626.06 168.624C1629.55 175.36 1631.28 183.245 1631.23 192.279L1631.23 268.959L1592.92 268.959L1592.92 199.798C1592.98 193.114 1591.28 187.892 1587.83 184.133C1584.44 180.373 1579.71 178.493 1573.66 178.493C1569.64 178.493 1566.08 179.381 1563 181.156C1559.98 182.879 1557.63 185.36 1555.95 188.597C1554.34 191.835 1553.5 195.751 1553.45 200.346ZM1677.82 270.995C1670.15 270.995 1663.33 269.716 1657.38 267.158C1651.48 264.547 1646.81 260.63 1643.36 255.409C1639.97 250.135 1638.27 243.529 1638.27 235.592C1638.27 228.909 1639.45 223.269 1641.8 218.674C1644.14 214.079 1647.38 210.346 1651.51 207.474C1655.63 204.602 1660.38 202.435 1665.76 200.973C1671.14 199.458 1676.88 198.44 1682.99 197.918C1689.83 197.291 1695.34 196.639 1699.52 195.96C1703.7 195.229 1706.73 194.211 1708.61 192.905C1710.54 191.547 1711.5 189.642 1711.5 187.187L1711.5 186.796C1711.5 182.775 1710.12 179.668 1707.35 177.475C1704.59 175.282 1700.85 174.185 1696.15 174.185C1691.09 174.185 1687.01 175.282 1683.93 177.475C1680.85 179.668 1678.9 182.697 1678.06 186.561L1642.74 185.308C1643.78 177.997 1646.47 171.47 1650.8 165.726C1655.19 159.93 1661.19 155.387 1668.82 152.098C1676.49 148.756 1685.71 147.085 1696.47 147.085C1704.14 147.085 1711.22 147.999 1717.69 149.826C1724.17 151.602 1729.81 154.212 1734.61 157.659C1739.41 161.053 1743.12 165.23 1745.73 170.191C1748.4 175.151 1749.73 180.817 1749.73 187.187L1749.73 268.959H1713.7L1713.7 252.197H1712.76C1710.62 256.27 1707.88 259.717 1704.53 262.536C1701.24 265.356 1697.35 267.471 1692.86 268.881C1688.42 270.291 1683.41 270.995 1677.82 270.995ZM1689.65 245.931C1693.78 245.931 1697.48 245.096 1700.77 243.425C1704.12 241.754 1706.78 239.456 1708.76 236.532C1710.75 233.556 1711.74 230.11 1711.74 226.193L1711.74 214.758C1710.64 215.332 1709.31 215.854 1707.75 216.324C1706.23 216.794 1704.56 217.238 1702.73 217.656C1700.9 218.074 1699.02 218.439 1697.09 218.752C1695.16 219.066 1693.31 219.353 1691.53 219.614C1687.93 220.188 1684.85 221.076 1682.29 222.277C1679.78 223.478 1677.85 225.045 1676.49 226.977C1675.19 228.856 1674.54 231.102 1674.54 233.713C1674.54 237.681 1675.95 240.71 1678.76 242.798C1681.64 244.887 1685.27 245.931 1689.65 245.931ZM1800.42 200.346L1800.42 268.959H1762.12L1762.12 148.651H1798.54L1798.54 170.739H1799.87C1802.53 163.376 1807.08 157.606 1813.5 153.429C1819.92 149.2 1827.57 147.085 1836.45 147.085C1844.91 147.085 1852.24 148.991 1858.46 152.803C1864.72 156.562 1869.58 161.836 1873.03 168.624C1876.53 175.36 1878.25 183.245 1878.2 192.279L1878.2 268.959H1839.9L1839.9 199.798C1839.95 193.114 1838.25 187.892 1834.8 184.133C1831.41 180.373 1826.68 178.493 1820.63 178.493C1816.61 178.493 1813.06 179.381 1809.98 181.156C1806.95 182.879 1804.6 185.36 1802.93 188.597C1801.31 191.835 1800.47 195.751 1800.42 200.346ZM1947.04 271.23C1934.35 271.23 1923.46 268.62 1914.38 263.398C1905.35 258.176 1898.4 250.918 1893.54 241.623C1888.69 232.277 1886.26 221.468 1886.26 209.197C1886.26 196.874 1888.69 186.065 1893.54 176.77C1898.45 167.423 1905.42 160.139 1914.46 154.917C1923.54 149.696 1934.38 147.085 1946.96 147.085C1958.08 147.085 1967.77 149.095 1976.02 153.116C1984.32 157.137 1990.8 162.828 1995.45 170.191C2000.15 177.501 2002.63 186.091 2002.89 195.96H1967.09C1966.36 189.798 1964.27 184.968 1960.83 181.47C1957.43 177.971 1952.99 176.222 1947.51 176.222C1943.07 176.222 1939.18 177.475 1935.84 179.981C1932.5 182.436 1929.89 186.091 1928.01 190.947C1926.18 195.751 1925.27 201.704 1925.27 208.805C1925.27 215.907 1926.18 221.912 1928.01 226.82C1929.89 231.676 1932.5 235.357 1935.84 237.864C1939.18 240.318 1943.07 241.545 1947.51 241.545C1951.06 241.545 1954.19 240.788 1956.91 239.274C1959.68 237.759 1961.95 235.54 1963.72 232.616C1965.5 229.64 1966.62 226.037 1967.09 221.807H2002.89C2002.52 231.728 2000.04 240.396 1995.45 247.811C1990.9 255.226 1984.51 260.996 1976.26 265.121C1968.06 269.194 1958.32 271.23 1947.04 271.23ZM2067.7 271.23C2055.11 271.23 2044.25 268.75 2035.11 263.79C2026.03 258.777 2019.03 251.649 2014.12 242.407C2009.27 233.112 2006.84 222.068 2006.84 209.275C2006.84 196.847 2009.29 185.986 2014.2 176.692C2019.11 167.345 2026.03 160.087 2034.96 154.917C2043.89 149.696 2054.41 147.085 2066.52 147.085C2075.09 147.085 2082.92 148.416 2090.02 151.079C2097.12 153.742 2103.26 157.685 2108.43 162.907C2113.6 168.128 2117.62 174.577 2120.49 182.253C2123.36 189.877 2124.8 198.623 2124.8 208.492L2124.8 218.048H2020.23L2020.23 195.803H2089.16C2089.11 191.73 2088.14 188.101 2086.26 184.916C2084.38 181.731 2081.8 179.25 2078.51 177.475C2075.27 175.647 2071.53 174.734 2067.31 174.734C2063.02 174.734 2059.19 175.7 2055.79 177.632C2052.4 179.511 2049.71 182.096 2047.72 185.386C2045.74 188.623 2044.7 192.305 2044.59 196.43L2044.59 219.066C2044.59 223.974 2045.56 228.282 2047.49 231.989C2049.42 235.645 2052.16 238.49 2055.71 240.527C2059.26 242.563 2063.49 243.582 2068.4 243.582C2071.8 243.582 2074.88 243.112 2077.64 242.172C2080.41 241.232 2082.79 239.848 2084.77 238.02C2086.76 236.193 2088.24 233.948 2089.24 231.285L2124.4 232.303C2122.94 240.187 2119.73 247.054 2114.77 252.902C2109.86 258.698 2103.41 263.215 2095.42 266.453C2087.43 269.638 2078.19 271.23 2067.7 271.23Z" fill="black"/>
</g>
<path d="M369.325 172.425C380.545 178.903 380.545 195.097 369.325 201.575L139.315 334.371C128.095 340.849 114.07 332.752 114.07 319.796L114.07 54.2037C114.07 41.2479 128.095 33.1506 139.315 39.6284L369.325 172.425Z" fill="black"/>
<path d="M264.137 197.529L95.8375 294.697C87.7341 299.376 77.605 293.528 77.605 284.171L77.605 89.8346C77.605 80.4776 87.7341 74.6295 95.8375 79.308L264.137 176.476C272.241 181.154 272.241 192.851 264.137 197.529Z" fill="black" stroke="#F6F6F6" stroke-width="9.35"/>
<defs>
<filter id="filter0_d_865_34146" x="445.657" y="98.0527" width="1698.07" height="211.119" filterUnits="userSpaceOnUse" color-interpolation-filters="sRGB">
<feFlood flood-opacity="0" result="BackgroundImageFix"/>
<feColorMatrix in="SourceAlpha" type="matrix" values="0 0 0 0 0 0 0 0 0 0 0 0 0 0 0 0 0 0 127 0" result="hardAlpha"/>
<feOffset dy="18.9318"/>
<feGaussianBlur stdDeviation="9.46588"/>
<feComposite in2="hardAlpha" operator="out"/>
<feColorMatrix type="matrix" values="0 0 0 0 0 0 0 0 0 0 0 0 0 0 0 0 0 0 0.25 0"/>
<feBlend mode="normal" in2="BackgroundImageFix" result="effect1_dropShadow_865_34146"/>
<feBlend mode="normal" in="SourceGraphic" in2="effect1_dropShadow_865_34146" result="shape"/>
</filter>
</defs>
</svg>
